<?xml version="1.0" encoding="UTF-8" standalone="no"?>
<!DOCTYPE svg PUBLIC "-//W3C//DTD SVG 1.1//EN" "http://www.w3.org/Graphics/SVG/1.1/DTD/svg11.dtd">
<!-- Created with Vectornator (http://vectornator.io/) -->
<svg height="100%" stroke-miterlimit="10" style="fill-rule:nonzero;clip-rule:evenodd;stroke-linecap:round;stroke-linejoin:round;" version="1.1" viewBox="0 0 160 50" width="100%" xml:space="preserve" xmlns="http://www.w3.org/2000/svg" xmlns:vectornator="http://vectornator.io" xmlns:xlink="http://www.w3.org/1999/xlink">
<defs/>
<g id="Без-названия" vectornator:layerName="Без названия">
<g opacity="1" vectornator:layerName="g">
<path d="M33.2362 15.1818L33.2706 15.4635L32.8481 15.5476L32.7873 16.1466L33.2925 16.1506L33.965 16.0912L34.3152 15.6815L33.9476 15.5351L33.7475 15.3012L33.4481 14.8077L33.3085 14.1119L32.7377 14.2236L32.5759 14.4671L32.5738 14.7431L32.8467 14.9332L33.2362 15.1818Z" fill="#e4c590" fill-rule="nonzero" opacity="1" stroke="none" vectornator:layerName="polygon"/>
<path d="M32.7486 15.4088L32.782 15.0332L32.4487 14.8864L31.98 14.9911L31.6288 15.545L31.6259 15.906L32.0305 15.9091L32.7486 15.4088Z" fill="#e4c590" fill-rule="nonzero" opacity="1" stroke="none" vectornator:layerName="polygon"/>
<path d="M43.4375 25.375C38.4175 25.4894 31.9156 25.6457 31.625 25.6562C30.7453 25.6881 30.6253 25.6912 29.75 25.7188L31.0625 27.2188L31.7812 27.2188L31.8125 27.125L33.125 27.125L33.5 26.7812L34.25 26.7812L34.6562 27.1875L35.75 27.3125L35.5938 28.7812L36.7812 30.9375L36.125 32.1562L36.1875 32.75L36.6875 33.25L36.6562 34.6562L37.3125 35.5312L37.3125 36.6875L37.875 36.7188C34.6509 40.6144 29.7816 43.0739 24.3438 43.0312C14.9671 42.9585 7.42129 35.424 7.15625 26.125C6.61683 26.0762 6.08143 26.0335 5.5625 25.9375C5.72085 36.1857 14.0418 44.5129 24.3438 44.5938C31.6956 44.6514 38.0912 40.4844 41.2812 34.375C41.9636 33.0689 42.5111 31.6809 42.875 30.2188C42.9676 29.8476 43.055 29.4713 43.125 29.0938C43.3245 28.0186 43.4286 26.9109 43.4375 25.7812C43.4388 25.7158 43.4378 25.6592 43.4375 25.5938C43.4374 25.5206 43.4384 25.448 43.4375 25.375ZM21.6562 25.9062C20.5188 25.9282 18.0201 25.9944 17.6562 26L17.5938 26.0625L17.3438 26.0312C17.305 26.0318 16.8345 26.0309 16.8125 26.0312C16.5217 26.0567 16.2661 26.1875 15.9688 26.1875C15.9305 26.1875 15.9114 26.1881 15.875 26.1875L15.9375 26.25L17.25 26.375L17.375 27.4688L16.4688 28.0938L16.4062 29.0625L16.2812 29.6562L17.5938 31.3125L17.6875 31.875C17.6875 31.875 18.1603 31.9995 18.2188 32C18.2764 32.0005 19.2812 32.7813 19.2812 32.7812L19.25 35.75L19.625 35.8438L19.3438 37.2188L19.9688 38.0312L19.8438 39.4062L20.625 40.8125L21.6562 41.7188L22.6875 41.75L22.7812 41.4062L22.0312 40.7812L22.0938 40.4688L22.2188 40.0625L22.25 39.6562L21.75 39.6562L21.4688 39.3125L21.9062 38.9062L21.9688 38.5938L21.5 38.4688L21.5312 38.1875L22.2188 38.0938L23.25 37.5938L23.5938 36.9688L24.6875 35.5625L24.4375 34.5L24.7812 33.9062L25.7812 33.9688L26.4688 33.4375L26.6875 31.3438L27.4375 30.4062L27.5938 29.7812L26.9062 29.5625L26.4688 28.8125L24.9375 28.8125L23.7188 28.3125L23.6562 27.4688L23.2812 26.75L22.1562 26.7188L21.6562 25.9062Z" fill="#e4c590" fill-rule="nonzero" opacity="1" stroke="none" vectornator:layerName="Кривая 1"/>
</g>
<path d="M13.5996 14.4743C13.2507 14.5093 12.889 14.598 12.6114 14.7181C12.5087 14.7625 12.2684 15.2222 12.1167 15.6608C12.0817 15.7658 12.0549 15.83 12.0595 15.8043C12.0759 15.7005 12.1855 15.2747 12.2404 15.1078C12.2719 15.0098 12.2964 14.9282 12.294 14.927C12.2847 14.9177 11.9639 15.0903 11.8437 15.1697C11.6185 15.3167 11.3618 15.55 11.3245 15.641C11.3012 15.6958 11.251 15.9327 11.237 16.0552C11.23 16.1158 11.2207 16.3013 11.2172 16.4682C11.2137 16.6339 11.2055 16.7622 11.2008 16.7529C11.1845 16.7237 11.1448 16.551 11.1273 16.4343C11.1133 16.3387 11.0865 16.019 11.0853 15.921C11.0842 15.8883 11.0258 16.0272 10.9698 16.194C10.88 16.4623 10.817 16.7704 10.7762 17.1344C10.7657 17.23 10.7552 17.3105 10.754 17.3129C10.7517 17.314 10.7412 17.2907 10.7295 17.2604C10.6665 17.09 10.5148 16.8672 10.3853 16.7552C10.3037 16.6852 10.1438 16.5837 10.1333 16.5954C10.1298 16.5989 10.1462 16.6595 10.1683 16.7319C10.1905 16.803 10.222 16.9255 10.2383 17.0037C10.271 17.1659 10.3072 17.4085 10.3002 17.4155C10.2978 17.4179 10.2733 17.3584 10.2453 17.2825C10.1321 16.9745 10.0143 16.7342 9.89764 16.5709C9.85098 16.5055 9.83464 16.4915 9.73897 16.4437C9.42514 16.2862 9.1253 16.1998 8.84762 16.187L8.70412 16.18L8.79979 16.2722C8.90596 16.376 9.00163 16.4903 9.08096 16.6094C9.15096 16.7155 9.28163 16.9524 9.27463 16.9605C9.27113 16.964 9.23963 16.9279 9.2058 16.8812C9.02029 16.6304 8.78929 16.3853 8.60728 16.2488C8.49062 16.1613 8.42761 16.1462 8.19194 16.145C8.00527 16.1438 7.86994 16.1637 7.67043 16.2197C7.54676 16.2547 7.30759 16.3387 7.20492 16.383L7.14775 16.4075L7.24109 16.4413C7.55143 16.5569 7.84077 16.7365 8.07061 16.9594L8.16278 17.048L8.08694 17.006C8.04494 16.9827 7.91194 16.9139 7.78943 16.8544C7.46393 16.6945 7.23409 16.6222 6.99608 16.607L6.87942 16.6L6.74758 16.6805C6.41391 16.8824 6.1409 17.1262 5.9659 17.377C5.9169 17.4482 5.91573 17.4494 5.94256 17.4575C5.95773 17.461 6.0009 17.4657 6.0394 17.4657C6.1689 17.468 6.49091 17.5229 6.53524 17.5497C6.54574 17.5567 6.52824 17.5579 6.48741 17.5532C6.3404 17.5369 6.01256 17.5859 5.77339 17.6582L5.67772 17.6874L5.56689 17.8542C5.31372 18.2346 5.17021 18.6032 5.14105 18.9451L5.13171 19.0419L5.16671 19.0419C5.23671 19.0419 5.49805 19.0046 5.66022 18.9719C5.80606 18.9416 6.06623 18.8739 6.0744 18.8646C6.07557 18.8622 6.1094 18.7981 6.1479 18.7199C6.26924 18.4831 6.45591 18.1797 6.62624 17.9452C6.71025 17.8297 6.72191 17.8204 6.67641 17.902C6.51424 18.1972 6.40924 18.4236 6.33224 18.6441C6.30307 18.7281 6.2949 18.7631 6.30424 18.7701C6.3299 18.7852 6.56558 18.7887 6.64491 18.7747C6.68691 18.7677 6.75575 18.7514 6.79658 18.7386C6.87242 18.7152 6.87242 18.7152 6.97275 18.5799C7.19676 18.2824 7.50126 17.9464 7.85594 17.6057C7.9831 17.4832 8.08694 17.3852 8.08694 17.3899C8.08694 17.3934 8.04027 17.4575 7.98194 17.531C7.66693 17.9382 7.39859 18.3559 7.23992 18.6861L7.17809 18.8144L7.20959 18.8412C7.30059 18.9159 7.52926 19.0057 7.6821 19.0244C7.71827 19.0291 7.7486 19.0361 7.7486 19.0384C7.7486 19.0419 7.72877 19.0687 7.70427 19.0991C7.65293 19.1609 7.56076 19.2892 7.56426 19.2927C7.5666 19.2939 7.63076 19.2857 7.70777 19.2741C7.91077 19.2437 8.54428 19.1947 8.52912 19.2099C8.52562 19.2134 8.44745 19.2262 8.35528 19.2402C8.01577 19.2892 7.73343 19.3616 7.47793 19.4642L7.32859 19.5237L7.24692 19.6602C7.03692 20.0126 6.88642 20.4221 6.80825 20.8561L6.80008 20.9016L6.89225 20.8258C7.14075 20.6193 7.39159 20.4746 7.6716 20.3766C7.81627 20.3264 7.80693 20.3404 7.59926 20.4839C7.30642 20.6858 7.06842 20.8981 6.91208 21.0964C6.84558 21.1804 6.84208 21.1898 6.83508 21.2656C6.81641 21.4605 6.86308 21.8711 6.93308 22.1406C6.96925 22.2818 7.05909 22.5478 7.10109 22.6411L7.12792 22.6995L7.14892 22.647C7.24459 22.4113 7.36709 22.2141 7.49893 22.087C7.59343 21.9948 7.59576 21.996 7.52693 22.0986C7.41026 22.2713 7.29476 22.5595 7.24692 22.7951C7.21426 22.9585 7.21542 22.9877 7.25859 23.1078C7.42543 23.5722 7.67627 23.928 7.97494 24.1228C8.07294 24.187 8.16161 24.2325 8.18844 24.2337C8.20944 24.2337 8.37395 23.9782 8.43695 23.8463C8.53962 23.6305 8.56762 23.4228 8.51862 23.2455C8.44978 22.9947 8.30978 22.717 8.04261 22.297C7.9761 22.192 7.9131 22.0916 7.9026 22.0753L7.8851 22.0461L7.90844 22.0695C7.92127 22.0823 8.09627 22.2911 8.29694 22.5326L8.66095 22.9725L8.69829 22.9445C8.78112 22.8815 8.86512 22.745 8.89079 22.6295C8.90246 22.5793 8.90012 22.5455 8.87446 22.3961C8.80562 21.9855 8.65512 21.5048 8.37861 20.8036C8.36461 20.7686 8.35878 20.7441 8.36578 20.7511C8.37861 20.7639 8.51395 21.0369 8.85696 21.7405C9.07163 22.1803 9.09729 22.227 9.1183 22.22C9.24196 22.1838 9.37263 22.0893 9.48814 21.9516C9.58381 21.8385 9.69697 21.6728 9.69697 21.6471C9.69697 21.6051 9.53597 21.0661 9.41113 20.6928C9.3073 20.3801 9.15096 19.9438 9.06113 19.7128C9.04363 19.6684 9.06346 19.7011 9.16263 19.8761C9.5383 20.5399 9.91865 21.2306 9.91865 21.2504C9.91865 21.2574 9.93148 21.2913 9.94665 21.324C9.98048 21.3963 10.054 21.4616 10.1333 21.4885C10.2197 21.5176 10.3877 21.5153 10.5055 21.4826C10.5942 21.457 10.7342 21.394 10.796 21.3508L10.8263 21.3286L10.8333 21.3835C10.8368 21.415 10.8415 21.4651 10.8427 21.4966C10.845 21.5515 10.845 21.5526 10.8007 21.5678C10.7493 21.5853 10.7248 21.6145 10.7237 21.6565C10.7237 21.6973 10.7493 21.7708 10.7855 21.8268C10.8205 21.8828 10.852 22.0146 10.8602 22.1465L10.8672 22.2468L10.8228 22.2538C10.7633 22.2631 10.7237 22.3028 10.7237 22.3495C10.7237 22.3705 10.747 22.4335 10.7762 22.4918C10.8298 22.598 10.8637 22.7181 10.8637 22.8056C10.8637 22.8511 10.8613 22.8558 10.8182 22.8733C10.7925 22.8826 10.754 22.9072 10.7307 22.9282C10.6957 22.9585 10.6887 22.9713 10.6887 23.0133C10.6887 23.0425 10.7003 23.0833 10.7178 23.116C10.733 23.1452 10.7575 23.2082 10.7703 23.256C10.7925 23.3388 10.8333 23.5687 10.8263 23.5745C10.824 23.5757 10.8007 23.5885 10.7738 23.6025C10.6677 23.6562 10.6537 23.7087 10.7132 23.8207C10.7645 23.9187 10.7902 23.9968 10.817 24.145C10.8555 24.3538 10.8543 24.3387 10.8263 24.3387C10.7762 24.3387 10.7097 24.3678 10.6805 24.4017C10.6303 24.4623 10.649 24.5499 10.7528 24.7377C10.789 24.8019 10.8252 24.9675 10.8357 25.1157L10.8438 25.2219L10.7878 25.2359C10.7248 25.251 10.6712 25.2989 10.6583 25.349C10.6443 25.4027 10.6723 25.503 10.7342 25.6279C10.7902 25.7399 10.8205 25.8519 10.8462 26.0327L10.8532 26.0876L10.7832 26.1237C10.5918 26.2194 10.5533 26.3244 10.6408 26.5064C10.6665 26.5577 10.7003 26.6417 10.7155 26.6919C10.747 26.7911 10.8053 27.0407 10.8053 27.0757C10.8053 27.0897 10.7762 27.1189 10.7307 27.1539C10.6735 27.1959 10.6478 27.2239 10.6233 27.2729C10.5778 27.3662 10.5872 27.4467 10.6583 27.5879C10.6875 27.6451 10.7213 27.7338 10.7342 27.7839L10.7563 27.8749L10.6875 27.8096C10.649 27.7723 10.6152 27.7443 10.614 27.7466C10.6117 27.7489 10.6187 27.8014 10.6315 27.8621C10.6432 27.9228 10.656 28.0231 10.6595 28.0838L10.6665 28.1946L10.6408 28.1596C10.5942 28.0989 10.5358 28.0488 10.4775 28.0184C10.446 28.0033 10.4203 27.9928 10.4203 27.9963C10.4203 27.9998 10.4308 28.0231 10.4437 28.0488C10.4705 28.1024 10.5288 28.2996 10.523 28.3171C10.5207 28.3241 10.4938 28.2961 10.4635 28.2541C10.3888 28.1514 10.2862 28.0499 10.2033 27.9939C10.1286 27.9426 10.0435 27.8971 10.0236 27.8971C10.0178 27.8971 10.0318 27.9379 10.0575 27.9869C10.1111 28.0943 10.1648 28.2564 10.1987 28.4069C10.2337 28.5703 10.2348 28.5668 10.1497 28.5213C10.061 28.4746 9.93848 28.4384 9.83698 28.4279C9.74948 28.4198 9.74948 28.4186 9.88364 28.5061C9.93848 28.5423 10.0201 28.6053 10.0668 28.6461C10.1462 28.7161 10.292 28.8701 10.292 28.8841C10.292 28.8876 10.257 28.8864 10.2138 28.8829C10.1111 28.8724 10.0015 28.8923 9.91048 28.9366C9.83464 28.9728 9.70864 29.0789 9.72264 29.0929C9.72731 29.0976 9.77048 29.0953 9.81948 29.0883C9.91165 29.0743 10.215 29.0731 10.2733 29.0859L10.3083 29.0929L10.2733 29.1081C10.2127 29.1361 10.0096 29.2528 10.0143 29.2574C10.0166 29.2598 10.0843 29.2318 10.1648 29.1968C10.516 29.0393 10.9092 28.9483 11.0818 28.9821C11.2522 29.0159 11.4085 29.0824 11.6512 29.2271C11.741 29.2808 11.8262 29.3321 11.8414 29.3415C11.8554 29.3508 11.867 29.3555 11.867 29.352C11.867 29.3461 11.5952 29.1513 11.5112 29.0976C11.4855 29.0801 11.4412 29.0556 11.412 29.0404L11.3607 29.0148L11.3875 28.9926C11.419 28.9669 11.5263 28.9623 11.6045 28.9833C11.6302 28.9903 11.6943 28.9996 11.7469 29.0043C11.86 29.0148 11.9044 29.0428 11.9674 29.1408L12.0082 29.2038L12.0514 29.1769C12.203 29.0813 12.4784 29.0148 12.8995 28.9716L13.0979 28.9518L12.9334 28.9436C12.8424 28.9389 12.7339 28.9389 12.6907 28.9436C12.6487 28.9471 12.6137 28.9459 12.6137 28.9413C12.6137 28.9086 12.8622 28.7173 13.0162 28.6309C13.0862 28.5913 13.0862 28.5913 13.0512 28.5843C13.0325 28.5796 12.9789 28.5761 12.9334 28.5749C12.7887 28.5726 12.6475 28.6309 12.5355 28.7406L12.4854 28.7884L12.4854 28.7348C12.4854 28.5784 12.5437 28.2879 12.6032 28.1549C12.6149 28.1269 12.6242 28.1013 12.6219 28.0989C12.6184 28.0966 12.5892 28.1199 12.5554 28.1503C12.4795 28.2179 12.3944 28.3451 12.3559 28.4466C12.329 28.5178 12.3279 28.5201 12.3209 28.4863C12.308 28.4303 12.3092 28.3218 12.3232 28.2343C12.3302 28.1888 12.3337 28.1491 12.3302 28.1468C12.3279 28.1433 12.2975 28.1596 12.2637 28.1829C12.231 28.2051 12.2007 28.2238 12.1972 28.2238C12.1879 28.2238 12.2065 27.9963 12.2287 27.8434C12.2427 27.7396 12.2555 27.6918 12.2742 27.6661C12.3185 27.6031 12.3687 27.4817 12.3769 27.4222C12.392 27.2857 12.3104 27.1714 12.1377 27.0886L12.0397 27.0419L12.0479 26.9591C12.063 26.7934 12.0875 26.6767 12.1284 26.5904C12.189 26.4562 12.2077 26.3921 12.21 26.3139C12.2112 26.2579 12.2054 26.2346 12.1867 26.2089C12.1505 26.1611 12.0934 26.1261 12.035 26.1167C12.007 26.1132 11.9837 26.1062 11.9837 26.1016C11.9837 26.0981 11.9919 26.0444 12.0012 25.9837C12.0257 25.8344 12.0689 25.6722 12.112 25.5754C12.1529 25.482 12.1552 25.4377 12.1237 25.37C12.098 25.3175 12.0152 25.2534 11.93 25.2195C11.8764 25.1985 11.8764 25.2137 11.9149 24.9955C11.9382 24.8544 11.9802 24.7109 12.0187 24.6362C12.0782 24.5195 12.0117 24.4075 11.8437 24.3433C11.8145 24.3328 11.7877 24.3177 11.783 24.3107C11.7702 24.292 11.7714 24.173 11.7854 24.0587C11.7935 23.9875 11.8087 23.9338 11.839 23.8697C11.9219 23.69 11.8904 23.6107 11.7235 23.5745L11.6897 23.5675L11.6978 23.4893C11.713 23.3458 11.7387 23.249 11.7912 23.144C11.8577 23.0133 11.8612 22.9562 11.8075 22.9107C11.7877 22.8943 11.7515 22.8768 11.7258 22.8733C11.7013 22.8686 11.6803 22.8593 11.6803 22.8523C11.6803 22.8453 11.6885 22.794 11.6978 22.7391C11.7165 22.6341 11.741 22.5548 11.7854 22.4533C11.8122 22.3938 11.8122 22.3926 11.79 22.3483C11.7702 22.3086 11.7095 22.2643 11.636 22.2375C11.6255 22.2328 11.6453 22.0601 11.6663 21.9785C11.6745 21.9458 11.6768 21.947 11.7375 22.0461C11.811 22.1675 11.9324 22.2993 12.0129 22.3448C12.0444 22.3635 12.077 22.3786 12.0852 22.3786C12.0922 22.3786 12.2917 22.0963 12.5274 21.7521C12.9649 21.1116 13.0407 21.0019 13.0524 21.0019C13.0559 21.0019 13.0489 21.0194 13.036 21.0393C12.8575 21.3321 12.5297 21.9598 12.4177 22.227C12.3244 22.4475 12.2287 22.7321 12.2287 22.7858C12.2299 22.8978 12.2835 23.0378 12.3617 23.1312L12.4014 23.1778L12.441 23.1417C12.462 23.1218 12.5694 23.025 12.6779 22.927C12.7875 22.8278 12.9719 22.6586 13.0885 22.5513C13.2052 22.4428 13.3032 22.3553 13.3079 22.3553C13.3114 22.3553 13.239 22.4428 13.1469 22.5501C13.0547 22.6586 12.9357 22.801 12.882 22.8686C12.672 23.1335 12.4877 23.4508 12.455 23.6025C12.4095 23.8172 12.4539 24.0505 12.5985 24.3527C12.6732 24.5102 12.6557 24.5032 12.8179 24.4378C13.0057 24.3608 13.1655 24.25 13.3277 24.0855C13.4981 23.9128 13.6229 23.7425 13.7617 23.4905L13.8271 23.3727L13.8271 23.2245C13.8271 22.9573 13.7722 22.6913 13.6696 22.458L13.6171 22.3378L13.6626 22.3903C13.7711 22.514 13.8737 22.7321 13.9321 22.9643L13.9636 23.0915L14.0102 23.0122C14.2436 22.6178 14.3976 22.2118 14.4617 21.8186C14.4886 21.6541 14.4874 21.6331 14.4536 21.5666C14.3812 21.4255 14.2482 21.2446 14.0721 21.0474C14.0301 21.0008 14.0067 20.9669 14.0196 20.9716C14.0872 20.9984 14.1689 21.0241 14.2284 21.0381C14.2914 21.0521 14.3007 21.0591 14.4361 21.1979L14.5761 21.3438L14.5679 21.2096L14.5597 21.0743L14.5947 21.0661C14.6367 21.0568 14.6379 21.0521 14.6554 20.8036C14.6799 20.4466 14.6636 20.0639 14.6017 19.5646C14.5924 19.4829 14.5854 19.4036 14.5877 19.3896C14.5912 19.3627 14.7149 19.7898 14.7826 20.0628C14.8596 20.3743 14.9343 20.7978 14.9541 21.0346L14.9623 21.1303L15.0754 21.2388C15.1373 21.2971 15.2178 21.3636 15.2539 21.3846C15.3356 21.4336 15.4523 21.4815 15.4628 21.471C15.4768 21.457 15.5281 21.1793 15.5468 21.0136C15.5573 20.9273 15.5689 20.7639 15.5736 20.6519C15.5829 20.4233 15.5899 20.4326 15.6121 20.6986C15.6273 20.8853 15.6296 21.4301 15.6144 21.583L15.6051 21.6786L15.7638 21.8338C15.8501 21.9201 15.9656 22.0263 16.0204 22.0718C16.1266 22.1605 16.3448 22.3203 16.3576 22.3203C16.3716 22.3203 16.4848 22.0753 16.5163 21.9773C16.5536 21.8606 16.5875 21.695 16.6026 21.548C16.6166 21.422 16.6178 21.0801 16.6061 20.9424C16.598 20.8584 16.5956 20.8514 16.5396 20.7861C16.4101 20.6344 16.1593 20.4349 15.9609 20.3253C15.9073 20.2961 15.8874 20.2809 15.9096 20.2856C16.0053 20.3066 16.2059 20.3813 16.3459 20.4489C16.4323 20.4898 16.5046 20.5236 16.5081 20.5236C16.5186 20.5236 16.4988 20.3253 16.4743 20.2004C16.4358 20.0009 16.3576 19.7816 16.2433 19.5494C16.0998 19.2601 16.1068 19.2694 15.9936 19.2169C15.7311 19.0944 15.3998 19.0256 15.0171 19.0116C14.9238 19.0081 14.8187 19.0022 14.7837 18.9987L14.7196 18.9917L14.7779 18.9766C15.0836 18.8949 15.4908 18.8821 15.8408 18.9427C15.8968 18.9532 15.9446 18.9579 15.9481 18.9556C15.9551 18.9486 15.7789 18.7339 15.6704 18.6161C15.4114 18.3372 15.1676 18.1622 14.9214 18.0782C14.8479 18.0537 14.8339 18.0525 14.7289 18.063C14.5061 18.0864 14.1782 18.1716 13.9204 18.2742C13.7337 18.3489 13.7151 18.3547 13.7396 18.3349C13.7862 18.2976 13.9822 18.1879 14.0896 18.1377C14.2307 18.0724 14.4127 18.0094 14.5516 17.979C14.6122 17.9662 14.6624 17.9534 14.6647 17.951C14.6752 17.9417 14.3766 17.8064 14.2704 17.7725C14.1094 17.72 14.0312 17.7025 13.8399 17.6722L13.6696 17.6454L13.7326 17.6139C13.7839 17.587 13.7921 17.5789 13.7792 17.5672C13.7699 17.559 13.6392 17.4529 13.4887 17.3327C13.0547 16.9839 12.4387 16.4775 12.4387 16.4693C12.4387 16.4658 12.4877 16.4938 12.5472 16.53C12.9614 16.7809 13.5447 17.1017 13.9636 17.3059L14.2447 17.4435L14.3042 17.4214C14.3987 17.3829 14.5737 17.2919 14.6496 17.2417C14.7826 17.1507 14.9249 16.992 14.9086 16.95C14.9051 16.9407 14.6519 16.7517 14.3439 16.5277C13.4736 15.893 13.4631 15.8837 13.8399 16.11C14.4174 16.4577 14.7977 16.6479 15.1734 16.7774C15.2994 16.8205 15.3099 16.8229 15.3869 16.8135C15.5153 16.7972 15.6296 16.7459 15.7206 16.6619C15.7299 16.6537 15.5351 16.4157 15.1256 15.9362C15.0334 15.8288 14.9588 15.7378 14.9588 15.7332C14.9588 15.7297 15.0171 15.7798 15.0883 15.8463C15.5001 16.229 15.7486 16.4203 16.0076 16.551C16.2561 16.6759 16.556 16.6479 16.9456 16.467C17.0075 16.4367 17.0588 16.4087 17.0588 16.404C17.0588 16.3702 16.9888 16.1823 16.941 16.0902C16.7928 15.802 16.5443 15.5593 16.1523 15.3225L15.9913 15.2245L15.8046 15.2315C15.5141 15.2408 15.2948 15.2863 15.0661 15.382C15.0136 15.4042 14.9704 15.4217 14.9704 15.4193C14.9704 15.4182 14.9984 15.3948 15.0334 15.368C15.1734 15.263 15.3484 15.1872 15.5759 15.1312C15.6564 15.1125 15.7253 15.0938 15.7264 15.0927C15.7358 15.0845 15.4231 14.906 15.2796 14.836C15.0381 14.7193 14.7989 14.6376 14.5527 14.5863C14.3299 14.5396 14.3124 14.5408 14.2051 14.5945C13.9869 14.7041 13.7617 14.878 13.4689 15.1615C13.3709 15.2572 13.2904 15.3307 13.2904 15.3272C13.2904 15.3097 13.4129 15.1043 13.4759 15.0168C13.6077 14.8313 13.8061 14.6236 13.9787 14.4895L14.0196 14.4568L13.8854 14.458C13.8119 14.4591 13.6824 14.4661 13.5996 14.4743ZM11.7632 17.4015C11.9312 17.5194 12.1715 17.6757 12.3034 17.7515L12.3477 17.7784L12.2695 17.8332L12.1914 17.888L12.1319 17.8355C11.9919 17.713 11.5485 17.2685 11.566 17.2685C11.5695 17.2685 11.6582 17.328 11.7632 17.4015ZM8.97246 17.8075C8.89079 17.9219 8.75545 18.1879 8.70412 18.3384L8.66795 18.4446L8.56178 18.4492C8.50228 18.4516 8.45328 18.4539 8.45211 18.4527C8.44628 18.4492 8.64812 18.1401 8.71112 18.0549C8.77645 17.9674 9.01679 17.7119 9.03429 17.7119C9.03896 17.7119 9.01096 17.755 8.97246 17.8075ZM12.9975 17.8799C12.9952 17.8822 12.931 17.9289 12.8552 17.9849C12.7805 18.0397 12.6814 18.1144 12.6359 18.1506C12.5904 18.1867 12.5519 18.2136 12.5495 18.2112C12.5484 18.2101 12.5997 18.1447 12.665 18.0677L12.7852 17.9277L12.8774 17.902C12.966 17.8775 13.008 17.8705 12.9975 17.8799ZM11.818 28.9273C11.8215 28.9436 11.811 28.9471 11.7574 28.9471C11.6803 28.9471 11.6722 28.9319 11.7422 28.9156C11.8017 28.9004 11.8134 28.9028 11.818 28.9273Z" fill="#e4c590" fill-rule="nonzero" opacity="1" stroke="none" vectornator:layerName="path 1"/>
<path d="M24.1484 29.1796C24.1507 28.2807 24.6615 27.4019 25.4935 26.4182L20.6822 23.3757C20.3788 23.2441 20.3855 23.059 20.5617 22.8404L21.5811 21.9705C21.7662 21.8567 21.9625 21.8077 22.1744 21.8657L28.1121 22.8694L33.0594 17.5116L21.5097 9.69806C21.2175 9.52631 21.193 9.33225 21.4941 9.10697L23.1603 7.77757L38.2165 12.0089L42.6641 7.25339C44.1564 5.96191 45.6062 5.3842 46.7193 5.65855C47.3327 5.81023 47.549 5.99313 47.7386 6.56861C48.1067 7.69727 47.5356 9.21403 46.1862 10.7754L41.4307 15.2231L45.662 30.2792L44.3326 31.9455C44.1073 32.2444 43.9133 32.2198 43.7415 31.9298L35.9257 20.3823L30.5679 25.3275L31.5717 31.2651C31.6297 31.4748 31.5828 31.6711 31.4668 31.8585L30.5969 32.8778C30.3806 33.054 30.1932 33.0607 30.0616 32.7574L27.0191 27.9461C26.031 28.7803 25.1522 29.2911 24.2488 29.2911C24.1663 29.2889 24.1484 29.2599 24.1484 29.1796L24.1484 29.1796Z" fill="#e4c590" fill-rule="nonzero" opacity="1" stroke="none" vectornator:layerName="path 2"/>
<g fill="#e4c590" opacity="1" stroke="none" vectornator:layerName="Text 1">
<path d="M58.809 41.747L55.19 36.533L56.95 36.533L56.95 36.28L52.814 36.28L52.814 36.533L54.574 36.533L50.966 41.747L49.195 41.747L49.195 42L52.924 42L52.924 41.747L51.296 41.747L52.627 39.811L57.17 39.811L58.501 41.747L56.851 41.747L56.851 42L60.58 42L60.58 41.747L58.809 41.747ZM52.803 39.558L54.882 36.533L54.904 36.533L56.994 39.558L52.803 39.558Z"/>
<path d="M66.3 36.28L60.921 36.28L60.921 36.544L62.934 36.544L62.934 41.747L60.921 41.747L60.921 42L66.3 42C68.555 42 70.095 41.065 70.095 39.14C70.095 37.215 68.555 36.28 66.3 36.28ZM66.3 41.747L63.209 41.747L63.209 36.544L66.3 36.544C68.445 36.544 69.82 37.402 69.82 39.14C69.82 40.878 68.445 41.747 66.3 41.747Z"/>
<path d="M81.106 36.28L77.41 36.28L77.41 36.544L79.027 36.544L75.914 41.67L72.823 36.544L74.407 36.544L74.407 36.28L70.7 36.28L70.7 36.544L72.482 36.544L75.87 42.121L75.936 42.121L79.335 36.544L81.106 36.544L81.106 36.28Z"/>
<path d="M90.423 38.293L90.423 36.28L81.557 36.28L81.557 36.544L83.57 36.544L83.57 41.747L81.557 41.747L81.557 42L90.423 42L90.423 39.987L90.159 39.987L90.159 41.747L83.845 41.747L83.845 39.129L87.233 39.129L87.233 40.317L87.508 40.317L87.508 37.688L87.233 37.688L87.233 38.876L83.845 38.876L83.845 36.544L90.148 36.544L90.148 38.293L90.423 38.293Z"/>
<path d="M103.645 36.28L99.366 36.28L99.366 36.544L101.368 36.544L101.368 41.527L94.537 36.28L92.249 36.28L92.249 36.544L94.262 36.544L94.262 41.747L92.249 41.747L92.249 42L96.528 42L96.528 41.747L94.537 41.747L94.537 36.654L101.599 42.055L101.643 42.055L101.643 36.544L103.645 36.544L103.645 36.28Z"/>
<path d="M104.514 36.28L104.514 38.293L104.789 38.293L104.789 36.533L108.628 36.533L108.628 41.747L106.516 41.747L106.516 42L111.015 42L111.015 41.747L108.903 41.747L108.903 36.533L112.731 36.533L112.731 38.293L113.006 38.293L113.006 36.28L104.514 36.28Z"/>
<path d="M124.721 36.28L120.475 36.28L120.475 36.544L122.477 36.544L122.444 39.349C122.433 41.021 121.135 41.857 119.221 41.857C117.296 41.857 115.998 41.021 115.987 39.327L115.965 36.544L117.956 36.544L117.956 36.28L113.71 36.28L113.71 36.544L115.712 36.544L115.712 39.206C115.712 41.131 117.109 42.121 119.221 42.121C121.344 42.121 122.719 41.131 122.719 39.206L122.719 36.544L124.721 36.544L124.721 36.28Z"/>
<path d="M135.578 40.064L135.578 40.295C135.578 41.175 134.973 41.846 134.126 41.846C133.246 41.846 132.806 41.263 132.146 40.471C131.629 39.844 131.299 39.514 130.804 39.349L132.608 39.349C133.972 39.349 134.632 38.601 134.632 37.842C134.632 36.973 133.972 36.28 132.608 36.28L125.337 36.28L125.337 36.544L127.35 36.544L127.35 41.747L125.337 41.747L125.337 42.011L129.616 42L129.616 41.736L127.625 41.736L127.625 39.36L129.913 39.36C130.837 39.36 131.266 39.789 131.926 40.625C132.575 41.461 133.147 42.11 134.126 42.11C135.171 42.11 135.853 41.296 135.853 40.295L135.853 40.064L135.578 40.064ZM127.625 39.096L127.625 36.544L132.608 36.544C133.807 36.544 134.346 37.149 134.346 37.842C134.346 38.513 133.785 39.096 132.608 39.096L127.625 39.096Z"/>
<path d="M145.709 38.293L145.709 36.28L136.843 36.28L136.843 36.544L138.856 36.544L138.856 41.747L136.843 41.747L136.843 42L145.709 42L145.709 39.987L145.445 39.987L145.445 41.747L139.131 41.747L139.131 39.129L142.519 39.129L142.519 40.317L142.794 40.317L142.794 37.688L142.519 37.688L142.519 38.876L139.131 38.876L139.131 36.544L145.434 36.544L145.434 38.293L145.709 38.293Z"/>
<path d="M151.649 39.052C149.196 38.854 148.371 38.524 148.371 37.754C148.371 36.852 149.372 36.423 150.901 36.423C152.749 36.423 153.959 37.116 154.905 38.216L154.971 38.194L154.971 36.28L154.718 36.28L154.718 37.666C153.97 36.896 152.815 36.159 150.923 36.159C149.13 36.159 148.096 36.72 148.096 37.754C148.096 38.645 148.943 39.129 151.649 39.316C154.135 39.492 155.092 39.789 155.092 40.636C155.092 41.483 154.036 41.846 152.683 41.846C151.033 41.846 149.13 41.186 148.14 40.053L148.074 40.075L148.074 42L148.338 42L148.338 40.614C149.196 41.384 150.89 42.11 152.661 42.11C154.223 42.11 155.356 41.626 155.356 40.636C155.356 39.602 154.289 39.261 151.649 39.052Z"/>
</g>
<g fill="#ffffff" opacity="1" stroke="none" vectornator:layerName="Text 2">
<path d="M51.332 14.2331L51.332 19.9061L52.107 19.9061L52.107 14.9461L62.926 14.9461L62.926 29.6401L56.974 29.6401L56.974 30.3531L69.653 30.3531L69.653 29.6401L63.701 29.6401L63.701 14.9461L74.489 14.9461L74.489 19.9061L75.264 19.9061L75.264 14.2331L51.332 14.2331Z"/>
<path d="M110.604 14.9771L110.604 14.2331L98.514 14.2331L98.514 14.9771L104.187 14.9771L104.187 21.7971L85.401 21.7971L85.401 14.9771L91.012 14.9771L91.012 14.2331L78.984 14.2331L78.984 14.9771L84.626 14.9771L84.626 29.6401L78.984 29.6401L78.984 30.3531L91.012 30.3531L91.012 29.6401L85.401 29.6401L85.401 22.5411L104.187 22.5411L104.187 29.6401L98.514 29.6401L98.514 30.3531L110.604 30.3531L110.604 29.6401L104.962 29.6401L104.962 14.9771L110.604 14.9771Z"/>
<path d="M138.659 29.6401L128.46 14.9461L133.42 14.9461L133.42 14.2331L121.764 14.2331L121.764 14.9461L126.724 14.9461L116.556 29.6401L111.565 29.6401L111.565 30.3531L122.074 30.3531L122.074 29.6401L117.486 29.6401L121.237 24.1841L134.04 24.1841L137.791 29.6401L133.141 29.6401L133.141 30.3531L143.65 30.3531L143.65 29.6401L138.659 29.6401ZM121.733 23.4711L127.592 14.9461L127.654 14.9461L133.544 23.4711L121.733 23.4711Z"/>
<path d="M156.67 14.9771L156.67 14.2331L144.611 14.2331L144.611 14.9771L150.284 14.9771L150.284 29.6401L144.611 29.6401L144.611 30.3531L156.67 30.3531L156.67 29.6401L151.059 29.6401L151.059 14.9771L156.67 14.9771Z"/>
</g>
</g>
</svg>
